PathFileType	4	(X/Y/Z)	s07c0403.trc
DataRate	CameraRate	NumFrames	NumMarkers	Units	OrigDataRate	OrigDataStartFrame	OrigNumFrames
200	200	5	48	mm	200	1250	2000
Frame#	Time	racr			lacr			c7			jug			rlel			rdr			llel			ldr			s2			lic			ric			lasi			rasi			rpsi			lpsi			rgt			lgt			rth1			rth2			rth3			rth4			rlfc			rmfc			rsh1			rsh2			rsh3			rsh4			rlmal			rcal			rtoe			rmt5			lth1			lth2			lth4			lth3			llfc			lmfc			lsh1			lsh2			lsh3			lsh4			llmal			lcal			ltoe			lmt5			SBIKE			LBIKE			RBIKE			
		X1	Y1	Z1	X2	Y2	Z2	X3	Y3	Z3	X4	Y4	Z4	X5	Y5	Z5	X6	Y6	Z6	X7	Y7	Z7	X8	Y8	Z8	X9	Y9	Z9	X10	Y10	Z10	X11	Y11	Z11	X12	Y12	Z12	X13	Y13	Z13	X14	Y14	Z14	X15	Y15	Z15	X16	Y16	Z16	X17	Y17	Z17	X18	Y18	Z18	X19	Y19	Z19	X20	Y20	Z20	X21	Y21	Z21	X22	Y22	Z22	X23	Y23	Z23	X24	Y24	Z24	X25	Y25	Z25	X26	Y26	Z26	X27	Y27	Z27	X28	Y28	Z28	X29	Y29	Z29	X30	Y30	Z30	X31	Y31	Z31	X32	Y32	Z32	X33	Y33	Z33	X34	Y34	Z34	X35	Y35	Z35	X36	Y36	Z36	X37	Y37	Z37	X38	Y38	Z38	X39	Y39	Z39	X40	Y40	Z40	X41	Y41	Z41	X42	Y42	Z42	X43	Y43	Z43	X44	Y44	Z44	X45	Y45	Z45	X46	Y46	Z46	X47	Y47	Z47	X48	Y48	Z48	
1250	6.2500	798.615672	1425.087691	-60.608754	854.562230	1370.411883	-396.866269	837.306653	1453.532958	-236.791455	785.560103	1309.620419	-225.107598	548.590736	1170.571619	37.190737	695.563789	941.681306	-62.170911	580.626055	1174.740711	-541.691664	683.529101	921.403378	-448.957248	245.828947	1281.410941	-298.043743	426.464943	1268.027557	-429.351720	404.311463	1314.134016	-141.500255	430.471320	1193.044538	-395.315484	416.429268	1254.155022	-153.568864	276.150938	1321.313381	-251.486904	298.615755	1310.082550	-361.465103	340.234906	1206.595683	-87.724624	316.996572	1138.524988	-439.109085	459.519296	1102.128413	-74.642307	544.905797	1054.157110	-75.702882	573.976337	977.518130	-71.064929	556.262437	1073.362056	-99.805177	643.231409	858.957474	-96.574058	635.926624	847.233178	-203.164670	534.740050	772.217880	-73.411245	473.170314	712.351993	-91.475684	389.555079	684.631701	-85.309921	481.665026	701.615049	-130.743503	264.810971	615.484460	-80.958497	185.947381	631.700693	-110.356713	382.322740	417.353097	-132.957238	305.790087	446.787968	-59.061514	306.926675	1027.036742	-442.656821	321.266963	940.827748	-438.171263	356.163191	937.060065	-428.854999	289.756654	857.693706	-429.900337	261.988956	690.562086	-399.615599	245.596254	678.565976	-306.131708	182.816896	568.331859	-419.059821	178.229624	488.182727	-400.679834	105.670073	418.461523	-402.649553	174.020449	487.312583	-357.810293	36.063251	303.248416	-395.401739	-38.676140	299.775713	-359.368531	206.591277	144.174593	-362.295784	124.184351	157.531948	-420.146693	-261.591694	965.038996	-237.057303	-82.771299	79.432644	-436.552838	-82.732309	79.646520	-38.953082	
1251	6.2550	798.538362	1423.145941	-57.472138	855.055259	1368.389784	-394.098921	838.482380	1450.882485	-233.450835	785.052630	1307.792393	-222.910891	546.118212	1169.621142	36.681385	695.581743	942.240429	-62.198198	581.071193	1175.157740	-540.777959	683.667670	921.454952	-448.540295	246.264347	1285.439898	-299.544990	427.388095	1271.693415	-429.785120	403.700296	1316.189386	-141.935129	430.767991	1196.318624	-395.690599	415.540229	1256.365715	-153.872202	276.730205	1324.988726	-252.909688	299.606964	1314.206270	-362.368482	338.346248	1208.903261	-88.992442	317.903553	1141.642583	-440.899507	456.462428	1104.082832	-75.544751	542.184713	1056.176671	-76.192723	571.027970	979.505082	-71.954567	553.555816	1075.642457	-99.690861	641.357937	861.260697	-96.359088	633.935550	849.108292	-203.070665	534.090753	772.494413	-73.217119	473.759977	711.000165	-91.035647	390.811103	681.806624	-84.867969	482.316688	700.447250	-130.542723	267.352902	609.281866	-80.625543	187.534123	622.781193	-109.750630	392.224032	416.535057	-132.971551	314.434299	442.135883	-58.819865	309.309621	1028.741336	-443.402064	325.260993	942.857858	-438.150180	360.120542	939.870743	-428.645568	295.267243	858.927728	-429.627220	269.158791	691.079048	-399.085372	251.820197	679.811708	-306.042736	186.578919	570.670885	-418.664223	178.652682	491.741782	-400.401390	104.652088	423.465265	-402.337961	173.515878	490.326538	-358.040124	31.214245	310.658328	-395.373347	-43.510370	308.823972	-359.534860	197.646849	146.954934	-361.276142	115.873228	162.841214	-419.603168	-261.601645	965.056111	-236.934663	-82.821072	79.447913	-436.509864	-82.727766	79.638104	-38.957913	
1252	6.2600	799.050121	1420.304921	-54.712377	855.331924	1366.110019	-391.316409	839.500618	1448.056718	-230.034408	784.428599	1305.768656	-220.881800	543.672572	1168.577871	36.018182	695.747692	942.796904	-62.316468	581.333198	1175.428245	-540.019899	683.866133	921.560949	-448.346509	246.800714	1289.330716	-301.218557	428.247258	1275.689098	-429.992009	402.859567	1318.204385	-142.227433	431.007325	1199.804417	-396.137876	414.569087	1258.467799	-154.210001	277.306114	1328.634413	-254.142338	300.494865	1318.454613	-363.159351	336.275567	1211.144224	-90.281973	318.829608	1144.873402	-442.607335	453.138193	1105.600534	-76.087997	541.688263	1056.537453	-77.045446	567.694299	981.027796	-72.282251	550.410170	1077.294156	-99.504821	638.453434	862.259386	-96.216845	628.716616	849.032782	-204.177576	531.715070	772.178265	-72.874435	472.984460	708.819425	-90.329410	390.371496	678.047065	-84.202055	482.330869	698.288741	-129.424280	268.832096	602.228188	-80.546242	189.932891	613.394597	-108.107608	401.512502	415.477297	-132.916901	322.376799	437.035102	-58.530496	312.111969	1030.366968	-444.158092	329.926616	945.016464	-438.298119	364.674946	942.752173	-428.460042	301.642141	860.366129	-429.761497	277.755567	691.643128	-398.719558	259.481047	681.171608	-306.076899	191.814025	573.184993	-418.537010	179.947999	495.471589	-400.122418	104.827255	428.916073	-402.258697	175.279563	493.887051	-357.623372	27.375180	318.744978	-395.899920	-47.502049	319.078231	-360.828478	188.995384	150.334865	-360.550809	108.106747	168.584458	-419.042000	-261.547116	965.017518	-236.987089	-82.760040	79.561604	-436.585921	-82.745062	79.655252	-38.932911	
1253	6.2650	799.962227	1416.653173	-52.135653	855.283550	1363.270433	-387.776320	840.341298	1445.042659	-226.965517	783.677167	1303.473551	-219.182043	541.235212	1167.456239	35.279911	695.612054	943.288182	-62.429567	581.534253	1175.570496	-539.396588	684.008776	921.650605	-448.258572	247.132475	1293.296943	-302.465592	428.901404	1279.684959	-430.218308	401.890234	1320.157518	-142.353008	431.197185	1203.503413	-396.577947	414.936468	1261.663919	-153.570263	277.759557	1332.210346	-254.938008	301.327293	1322.628691	-363.676968	334.175126	1213.265177	-91.471893	319.864031	1148.067430	-444.231609	449.449547	1106.519773	-76.474657	538.090980	1057.451556	-77.016002	563.760914	981.796624	-72.430897	546.903656	1078.271183	-99.140803	634.518011	862.133150	-96.060420	624.696679	848.055781	-203.843762	528.012184	770.826978	-72.555239	470.727362	705.701457	-89.809864	388.767784	673.138550	-84.202719	480.877974	694.966785	-128.564395	269.413690	594.207814	-80.513476	188.234366	601.131073	-108.724202	410.091969	414.406084	-132.978539	329.978067	431.067213	-58.488670	315.328781	1032.006751	-444.940405	335.010654	946.865738	-438.073734	369.784590	945.742236	-428.218771	308.789268	861.860646	-429.950002	287.623886	692.146636	-398.533281	268.558708	682.522316	-306.209629	198.302515	575.805294	-418.568457	182.048195	499.369428	-399.852591	106.076916	434.825171	-402.535799	176.617535	498.399592	-356.887366	24.573275	327.476466	-396.909713	-50.523216	329.346908	-361.485689	180.770785	154.247382	-360.388501	101.107217	174.648294	-418.267002	-261.536502	965.048134	-236.926375	-82.751426	79.620321	-436.584187	-82.748104	79.656897	-38.930905	
1254	6.2700	801.253896	1412.286731	-49.770955	855.101980	1360.781878	-385.163265	841.030471	1441.996460	-224.317309	782.847490	1301.013444	-217.781649	538.828968	1166.217364	34.586585	695.347987	943.732774	-62.542150	581.637138	1175.570213	-538.933039	684.238107	921.767598	-448.322892	247.438840	1297.164107	-303.567489	429.508747	1283.878431	-430.484696	400.772550	1321.975366	-142.102629	431.413189	1207.162504	-396.966263	413.933052	1263.804191	-153.758537	278.094645	1335.598814	-255.616304	302.178638	1326.749466	-363.937468	331.766977	1215.076468	-92.772465	320.978123	1151.006670	-445.871394	445.559542	1106.984765	-76.990088	534.088175	1057.498844	-76.935289	559.079500	981.746122	-71.896377	543.199363	1078.353809	-98.712716	629.490109	860.947904	-95.795468	619.644083	846.083807	-203.495092	523.137177	768.501073	-72.287434	467.744881	701.574147	-89.031699	387.053012	667.423033	-83.305566	478.477870	690.668711	-127.595303	269.190162	585.120212	-80.673102	187.550557	588.581157	-108.299716	418.142474	412.946839	-132.439887	336.986785	424.766367	-57.961481	318.944897	1033.599717	-445.729273	340.770653	949.008478	-438.233911	375.418710	948.840310	-427.834285	316.643638	863.953502	-430.870370	298.558728	692.500005	-398.535866	279.088999	683.174868	-306.807332	205.872758	578.545353	-418.706706	184.869434	503.432951	-399.598203	108.210534	441.257422	-403.215027	180.239952	502.542793	-356.946104	22.641384	336.723940	-398.232878	-52.891891	340.402336	-362.653842	172.873582	158.309542	-359.479026	94.576790	181.178191	-417.324876	-261.523057	965.154572	-236.680677	-82.756202	79.683131	-436.572628	-82.760303	79.673030	-38.917007	
